<?xml version="1.0" standalone="no"?>
<!DOCTYPE svg PUBLIC "-//W3C//DTD SVG 20010904//EN"
 "http://www.w3.org/TR/2001/REC-SVG-20010904/DTD/svg10.dtd">
<svg version="1.0" xmlns="http://www.w3.org/2000/svg"
 width="800.000000pt" height="915.000000pt" viewBox="0 0 800.000000 915.000000"
 preserveAspectRatio="xMidYMid meet">

<g transform="translate(0.000000,915.000000) scale(0.100000,-0.100000)"
fill="#000000" stroke="none">
<path d="M713 8565 c-287 -52 -511 -224 -632 -487 -21 -45 -47 -112 -57 -148
-18 -63 -19 -181 -22 -3315 -3 -3602 -7 -3330 63 -3502 86 -213 274 -397 486
-477 160 -60 -86 -56 3449 -56 2905 0 3239 2 3307 16 169 35 301 104 425 222
93 89 158 183 203 295 70 172 66 -100 63 3502 -3 3134 -4 3252 -22 3315 -10
36 -36 103 -57 148 -110 238 -303 400 -564 474 l-80 23 -3245 2 c-2630 1
-3259 -1 -3317 -12z m5382 -1276 c655 -151 643 -147 711 -237 52 -67 58 -120
45 -379 -7 -123 -18 -281 -26 -351 -160 -1389 -850 -2627 -1948 -3494 -870
-688 -2002 -1093 -3082 -1102 -164 -1 -184 1 -226 20 -55 26 -110 80 -132 131
-10 21 -78 304 -154 628 -148 642 -154 676 -114 758 46 94 56 99 772 406 l662
283 71 -4 c121 -6 127 -12 456 -413 l291 -355 35 15 c66 28 300 158 426 239
611 387 1138 968 1456 1602 l61 122 -344 281 c-189 155 -357 297 -373 317 -37
44 -52 95 -52 170 0 54 20 105 286 726 270 631 288 669 330 708 63 58 133 83
209 73 22 -3 310 -68 640 -144z"/>
</g>
</svg>
